<svg width="350" height="360" viewBox="0 0 350 360" fill="none" xmlns="http://www.w3.org/2000/svg">
<g opacity="0.3">
<path d="M225.555 110.412H89.2649C86.3906 110.412 84.0605 112.809 84.0605 115.765V302.688C84.0605 305.645 86.3906 308.041 89.2649 308.041H225.555C228.429 308.041 230.759 305.645 230.759 302.688V115.765C230.759 112.809 228.429 110.412 225.555 110.412Z" fill="#080808"/>
<path d="M224.618 111.377H90.2024C87.3281 111.377 84.998 113.773 84.998 116.73V301.724C84.998 304.68 87.3281 307.077 90.2024 307.077H224.618C227.492 307.077 229.822 304.68 229.822 301.724V116.73C229.822 113.773 227.492 111.377 224.618 111.377Z" stroke="white" stroke-width="3.21429"/>
</g>
<path d="M150.614 249.338H17.7269C14.8525 249.338 12.5225 251.734 12.5225 254.691V280.69C12.5225 283.647 14.8525 286.043 17.7269 286.043H150.614C153.489 286.043 155.819 283.647 155.819 280.69V254.691C155.819 251.734 153.489 249.338 150.614 249.338Z" fill="#080808"/>
<path d="M149.677 250.302H18.6644C15.79 250.302 13.46 252.699 13.46 255.655V279.726C13.46 282.682 15.79 285.079 18.6644 285.079H149.677C152.551 285.079 154.881 282.682 154.881 279.726V255.655C154.881 252.699 152.551 250.302 149.677 250.302Z" stroke="white" stroke-width="3.21429"/>
<path d="M252.351 274.639H193.785C187.699 274.639 182.766 279.713 182.766 285.973V345.893C182.766 352.152 187.699 357.227 193.785 357.227H252.351C258.436 357.227 263.37 352.152 263.37 345.893V285.973C263.37 279.713 258.436 274.639 252.351 274.639Z" fill="#080808"/>
<path d="M251.184 275.839H194.952C188.866 275.839 183.932 280.913 183.932 287.173V344.693C183.932 350.952 188.866 356.027 194.952 356.027H251.184C257.27 356.027 262.203 350.952 262.203 344.693V287.173C262.203 280.913 257.27 275.839 251.184 275.839Z" stroke="white" stroke-width="4"/>
<path d="M98.8025 77.4124H61.8724C58.9981 77.4124 56.668 79.809 56.668 82.7655V120.563C56.668 123.52 58.9981 125.916 61.8724 125.916H98.8025C101.677 125.916 104.007 123.52 104.007 120.563V82.7655C104.007 79.809 101.677 77.4124 98.8025 77.4124Z" fill="#080808"/>
<path d="M97.8653 78.3767H62.8101C59.9358 78.3767 57.6057 80.7734 57.6057 83.7298V119.599C57.6057 122.555 59.9358 124.952 62.8101 124.952H97.8653C100.74 124.952 103.07 122.555 103.07 119.599V83.7298C103.07 80.7734 100.74 78.3767 97.8653 78.3767Z" stroke="white" stroke-width="3.21429"/>
<mask id="mask0_1_20065" style="mask-type:luminance" maskUnits="userSpaceOnUse" x="65" y="83" width="32" height="33">
<path d="M96.3306 83.9672H65.6243V115.429H96.3306V83.9672Z" fill="white"/>
</mask>
<g mask="url(#mask0_1_20065)">
<path fill-rule="evenodd" clip-rule="evenodd" d="M88.2268 98.1011H87.0514V93.4877C87.0514 91.2725 86.8869 89.8337 86.5591 89.1713C86.3368 88.7231 86.0615 88.3301 85.7325 87.9917C85.4035 87.6533 85.0214 87.3701 84.5857 87.1415C83.9417 86.8043 82.5428 86.6357 80.3892 86.6357H80.2317C78.0774 86.6357 76.6786 86.8043 76.0346 87.1415C75.5988 87.3701 75.2168 87.6533 74.8878 87.9917C74.5588 88.3301 74.2834 88.7231 74.0612 89.1713C73.7333 89.8337 73.5694 91.2725 73.5694 93.4877V98.1011H72.394C71.3329 98.1011 70.6195 98.1971 70.2538 98.3885C70.0064 98.5181 69.7894 98.6795 69.6028 98.8709C69.4161 99.0629 69.2592 99.2867 69.1332 99.5411C68.9471 99.9167 68.8538 100.651 68.8538 101.742V111.923C68.8538 113.014 68.9471 113.748 69.1332 114.124C69.2592 114.379 69.4161 114.602 69.6028 114.794C69.7894 114.986 70.0064 115.147 70.2538 115.277C70.6195 115.468 71.3329 115.564 72.394 115.564H88.2268C89.2879 115.564 90.0008 115.468 90.3665 115.277C90.6138 115.147 90.8308 114.986 91.0181 114.794C91.2048 114.602 91.3611 114.379 91.4871 114.124C91.6732 113.748 91.7665 113.014 91.7665 111.923V101.742C91.7665 100.651 91.6732 99.9167 91.4871 99.5411C91.3611 99.2867 91.2048 99.0629 91.0181 98.8709C90.8308 98.6795 90.6138 98.5181 90.3665 98.3885C90.0013 98.1971 89.2879 98.1011 88.2268 98.1011ZM85.176 98.1011H75.4443V93.4877C75.4443 91.5815 75.5405 90.4343 75.7318 90.0467C75.8619 89.7851 76.0229 89.5553 76.2154 89.3573C76.4079 89.1593 76.6313 88.9937 76.8863 88.8605C77.2625 88.6625 78.3778 88.5635 80.2317 88.5635H80.3892C82.243 88.5635 83.3578 88.6625 83.7346 88.8605C83.9895 88.9937 84.2129 89.1593 84.4054 89.3573C84.5973 89.5553 84.7589 89.7851 84.8884 90.0467C85.0803 90.4343 85.176 91.5815 85.176 93.4877V98.1011ZM89.8917 111.923V101.742C89.8917 100.96 89.8666 100.517 89.8164 100.417C89.7826 100.348 89.7406 100.288 89.6904 100.237C89.6403 100.186 89.5819 100.142 89.5154 100.107C89.4174 100.056 88.9875 100.03 88.2268 100.03H72.394C71.6328 100.03 71.2034 100.056 71.1054 100.107C71.0389 100.142 70.9806 100.186 70.9298 100.237C70.8803 100.288 70.8383 100.348 70.8038 100.417C70.7537 100.517 70.7292 100.96 70.7292 101.742V111.923C70.7292 112.706 70.7537 113.147 70.8038 113.249C70.8383 113.317 70.8803 113.377 70.9298 113.429C70.9806 113.48 71.0389 113.524 71.1054 113.558C71.2034 113.61 71.6328 113.636 72.394 113.636H88.2268C88.9875 113.636 89.4174 113.61 89.5154 113.558C89.5819 113.524 89.6403 113.48 89.6904 113.429C89.7406 113.377 89.7826 113.317 89.8164 113.249C89.8666 113.147 89.8917 112.706 89.8917 111.923ZM80.9778 104.12C79.5643 104.12 78.4187 105.293 78.4187 106.742C78.4187 108.19 79.5643 109.363 80.9778 109.363C82.3906 109.363 83.5368 108.19 83.5368 106.742C83.5368 105.293 82.3906 104.12 80.9778 104.12Z" fill="white" fill-opacity="0.96"/>
</g>
<path fill-rule="evenodd" clip-rule="evenodd" d="M234.302 335.363L233.76 335.685L225.206 340.555C224.594 340.903 223.982 341.077 223.37 341.077C222.758 341.077 222.146 340.903 221.534 340.555L212.977 335.684C210.3 334.16 208.185 332.045 206.631 329.34C205.849 327.977 205.263 326.559 204.875 325.086C204.492 323.635 204.301 322.129 204.301 320.571V297.499C204.301 296.961 204.393 296.462 204.578 296.002C204.763 295.542 205.041 295.122 205.411 294.741C205.781 294.361 206.19 294.075 206.636 293.885C207.083 293.694 207.569 293.599 208.092 293.599H238.647C239.171 293.599 239.656 293.694 240.103 293.885C240.55 294.075 240.958 294.361 241.328 294.741C242.069 295.503 242.439 296.422 242.439 297.499V320.571C242.439 323.595 241.715 326.425 240.266 329.059C239.55 330.361 238.703 331.532 237.724 332.573C236.728 333.634 235.595 334.559 234.326 335.348L234.302 335.363ZM237.866 327.605C238.97 325.579 239.522 323.234 239.522 320.571V297.499C239.522 297.199 239.45 296.974 239.304 296.824C239.158 296.674 238.939 296.599 238.647 296.599H208.092C207.801 296.599 207.582 296.674 207.436 296.824C207.29 296.974 207.217 297.199 207.217 297.499V320.571C207.217 321.856 207.375 323.097 207.69 324.295C208.011 325.513 208.496 326.687 209.143 327.814C209.776 328.917 210.522 329.901 211.381 330.766C212.264 331.657 213.267 332.42 214.389 333.06L222.946 337.93C223.228 338.09 223.511 338.09 223.793 337.93L232.348 333.06L232.828 332.774C232.824 332.776 232.821 332.779 232.816 332.781L232.841 332.766L232.828 332.774C235.071 331.376 236.75 329.653 237.866 327.605ZM218.014 313.658L221.282 316.968L229.104 309.04C229.816 308.32 230.97 308.32 231.681 309.04C232.393 309.762 232.393 310.931 231.681 311.653L222.57 320.886C221.859 321.607 220.705 321.607 219.993 320.886L215.437 316.269C214.726 315.548 214.726 314.378 215.437 313.658C216.149 312.937 217.303 312.937 218.014 313.658Z" fill="white" fill-opacity="0.96"/>
<path d="M147.718 1.56604C148.931 6.54604 152.857 19.236 163.217 29.892C173.851 40.83 186.929 44.994 191.625 46.2C191.975 46.29 191.975 46.926 191.625 47.016C186.953 48.198 174.003 52.296 163.409 63.126C152.828 73.944 148.826 87.18 147.659 91.962C147.572 92.328 146.948 92.328 146.86 91.962C145.693 87.18 141.686 73.944 131.104 63.126C120.651 52.428 107.888 48.306 103.075 47.058C102.713 46.968 102.725 46.296 103.087 46.212C107.934 45.09 120.82 41.262 131.489 30.486C142.077 19.794 145.769 6.67204 146.86 1.57804C146.936 1.20604 147.63 1.19404 147.718 1.56604Z" fill="black"/>
<path d="M147.718 1.56604C148.931 6.54604 152.857 19.236 163.217 29.892C173.851 40.83 186.929 44.994 191.625 46.2C191.975 46.29 191.975 46.926 191.625 47.016C186.953 48.198 174.003 52.296 163.409 63.126C152.828 73.944 148.826 87.18 147.659 91.962C147.572 92.328 146.948 92.328 146.86 91.962C145.693 87.18 141.686 73.944 131.104 63.126C120.651 52.428 107.888 48.306 103.075 47.058C102.713 46.968 102.725 46.296 103.087 46.212C107.934 45.09 120.82 41.262 131.489 30.486C142.077 19.794 145.769 6.67204 146.86 1.57804C146.936 1.20604 147.63 1.19404 147.718 1.56604Z" fill="url(#paint0_radial_1_20065)"/>
<path fill-rule="evenodd" clip-rule="evenodd" d="M153.253 20.094C155.674 24.102 158.55 27.822 161.881 31.248C166.635 36.138 172.288 40.2 178.833 43.428C181.347 44.67 183.855 45.726 186.352 46.602C183.884 47.46 181.411 48.498 178.926 49.722C172.433 52.908 166.816 56.922 162.079 61.764C157.348 66.606 153.423 72.342 150.308 78.978C149.118 81.516 148.097 84.048 147.257 86.568C146.417 84.048 145.402 81.516 144.206 78.978C141.091 72.342 137.171 66.606 132.434 61.764C129.617 58.878 126.578 56.322 123.328 54.096C118.819 51 113.896 48.534 108.558 46.704C113.435 45.156 117.979 43.056 122.191 40.404C126.006 38.004 129.547 35.154 132.813 31.854C135.923 28.71 138.618 25.302 140.904 21.624C143.658 17.202 145.81 12.39 147.362 7.19404C148.867 11.784 150.833 16.08 153.253 20.094ZM146.341 3.76204C146.405 3.51004 146.469 3.25804 146.528 3.02404C146.656 2.49004 146.767 2.00404 146.86 1.57804C146.936 1.20604 147.63 1.19404 147.718 1.56604C147.823 1.99204 147.945 2.47204 148.091 3.00004C148.155 3.23404 148.225 3.48004 148.295 3.73804C149.998 9.63604 154.134 20.55 163.217 29.892C172.521 39.468 183.703 43.848 189.496 45.6C189.741 45.672 189.974 45.744 190.196 45.81C190.733 45.96 191.211 46.092 191.625 46.2C191.975 46.29 191.975 46.926 191.625 47.016C191.211 47.118 190.733 47.244 190.196 47.4C189.974 47.466 189.735 47.532 189.496 47.604C183.738 49.332 172.673 53.652 163.409 63.126C154.152 72.588 149.934 83.898 148.237 89.79C148.167 90.036 148.097 90.276 148.038 90.504C147.887 91.05 147.764 91.542 147.659 91.962C147.572 92.328 146.948 92.328 146.86 91.962C146.755 91.542 146.627 91.05 146.481 90.504C146.417 90.276 146.347 90.036 146.277 89.79C144.585 83.898 140.362 72.588 131.104 63.126C121.952 53.76 111.026 49.434 105.216 47.664C104.965 47.586 104.72 47.514 104.487 47.448C103.962 47.298 103.489 47.166 103.075 47.058C102.713 46.968 102.725 46.296 103.087 46.212C103.501 46.116 103.979 45.996 104.51 45.858C104.743 45.798 104.988 45.732 105.239 45.66C111.096 44.034 122.144 39.924 131.489 30.486C140.793 21.09 144.772 9.81604 146.341 3.76204Z" fill="white"/>
<path d="M296.794 229.266C297.558 232.2 299.734 238.656 305.042 244.116C310.526 249.756 317.217 252.054 320.011 252.816C320.273 252.888 320.273 253.374 320.011 253.446C317.234 254.196 310.607 256.458 305.147 262.044C299.693 267.624 297.477 274.386 296.742 277.236C296.672 277.5 296.193 277.5 296.123 277.236C295.388 274.386 293.172 267.624 287.717 262.044C282.345 256.548 275.841 254.268 272.988 253.482C272.726 253.41 272.732 252.888 273 252.822C275.87 252.108 282.438 249.972 287.927 244.434C293.352 238.95 295.423 232.284 296.117 229.278C296.182 228.996 296.718 228.99 296.794 229.266Z" fill="black"/>
<path d="M296.794 229.266C297.558 232.2 299.734 238.656 305.042 244.116C310.526 249.756 317.217 252.054 320.011 252.816C320.273 252.888 320.273 253.374 320.011 253.446C317.234 254.196 310.607 256.458 305.147 262.044C299.693 267.624 297.477 274.386 296.742 277.236C296.672 277.5 296.193 277.5 296.123 277.236C295.388 274.386 293.172 267.624 287.717 262.044C282.345 256.548 275.841 254.268 272.988 253.482C272.726 253.41 272.732 252.888 273 252.822C275.87 252.108 282.438 249.972 287.927 244.434C293.352 238.95 295.423 232.284 296.117 229.278C296.182 228.996 296.718 228.99 296.794 229.266Z" fill="url(#paint1_radial_1_20065)"/>
<path fill-rule="evenodd" clip-rule="evenodd" d="M299.518 240.216C300.732 242.094 302.132 243.84 303.712 245.472C305.06 246.858 306.501 248.112 308.035 249.228C310.176 250.788 312.492 252.09 314.994 253.128C312.597 254.124 310.362 255.36 308.292 256.842C306.705 257.982 305.212 259.26 303.817 260.688C302.435 262.104 301.187 263.622 300.078 265.236C298.626 267.354 297.412 269.64 296.432 272.106C295.458 269.64 294.239 267.354 292.787 265.236C291.678 263.622 290.436 262.104 289.047 260.688C287.735 259.344 286.341 258.132 284.853 257.046C282.765 255.516 280.502 254.238 278.063 253.212C280.239 252.342 282.287 251.268 284.2 249.984C285.997 248.778 287.682 247.38 289.246 245.802C290.739 244.29 292.069 242.664 293.218 240.918C294.548 238.914 295.645 236.754 296.52 234.438C297.348 236.484 298.352 238.41 299.518 240.216ZM295.493 231.57C295.575 231.312 295.651 231.06 295.715 230.82C295.884 230.238 296.018 229.716 296.117 229.278C296.182 228.996 296.718 228.99 296.794 229.266C296.905 229.704 297.051 230.22 297.237 230.802C297.313 231.036 297.389 231.288 297.477 231.54C298.614 234.87 300.854 239.802 305.042 244.116C309.371 248.562 314.446 250.932 317.765 252.108C318.016 252.198 318.261 252.282 318.488 252.354C319.072 252.552 319.585 252.702 320.011 252.816C320.273 252.888 320.273 253.374 320.011 253.446C319.585 253.56 319.072 253.71 318.488 253.902C318.255 253.98 318.016 254.058 317.765 254.148C314.469 255.312 309.447 257.652 305.147 262.044C300.854 266.436 298.567 271.566 297.43 274.938C297.342 275.196 297.261 275.442 297.191 275.676C297.004 276.276 296.852 276.798 296.742 277.236C296.672 277.5 296.193 277.5 296.123 277.236C296.012 276.798 295.867 276.276 295.68 275.676C295.604 275.442 295.522 275.196 295.435 274.938C294.297 271.566 292.011 266.436 287.717 262.044C283.477 257.712 278.536 255.378 275.24 254.196C274.983 254.106 274.738 254.022 274.499 253.944C273.927 253.752 273.414 253.602 272.988 253.482C272.726 253.41 272.732 252.888 273 252.822C273.426 252.714 273.939 252.576 274.522 252.402C274.756 252.33 275.007 252.252 275.263 252.162C278.588 251.058 283.593 248.808 287.927 244.434C292.232 240.084 294.42 234.99 295.493 231.57Z" fill="white"/>
<path d="M336.714 57.0153H221.853C215.768 57.0153 210.834 62.0897 210.834 68.3493V185.949C210.834 192.209 215.768 197.284 221.853 197.284H336.714C342.8 197.284 347.733 192.209 347.733 185.949V68.3493C347.733 62.0897 342.8 57.0153 336.714 57.0153Z" fill="#080808"/>
<path d="M335.777 57.9797H222.791C216.705 57.9797 211.772 63.0542 211.772 69.3138V184.985C211.772 191.245 216.705 196.319 222.791 196.319H335.777C341.862 196.319 346.796 191.245 346.796 184.985V69.3138C346.796 63.0542 341.862 57.9797 335.777 57.9797Z" stroke="white" stroke-width="3.21429"/>
<mask id="mask1_1_20065" style="mask-type:luminance" maskUnits="userSpaceOnUse" x="230" y="75" width="102" height="104">
<path d="M331.474 75.3685H230.399V178.931H331.474V75.3685Z" fill="white"/>
</mask>
<g mask="url(#mask1_1_20065)">
<path fill-rule="evenodd" clip-rule="evenodd" d="M277.906 96.942H258.691C255.856 96.942 253.534 96.942 251.65 97.098C249.702 97.26 247.94 97.608 246.295 98.466C243.717 99.81 241.623 101.958 240.31 104.598C239.476 106.284 239.132 108.09 238.974 110.088C238.823 112.02 238.823 114.396 238.823 117.3V136.992C238.823 139.896 238.823 142.272 238.974 144.204C239.132 146.202 239.476 148.008 240.31 149.694C241.623 152.334 243.717 154.476 246.295 155.826C247.94 156.684 249.702 157.032 251.65 157.194C253.534 157.35 255.856 157.35 258.691 157.35H277.906C280.747 157.35 283.063 157.35 284.947 157.194C286.901 157.032 288.663 156.684 290.308 155.826C292.88 154.476 294.974 152.334 296.287 149.694C297.127 148.008 297.465 146.202 297.628 144.204C297.774 142.356 297.78 140.1 297.78 137.364V116.922C297.78 114.192 297.774 111.936 297.628 110.088C297.465 108.09 297.127 106.284 296.287 104.598C294.974 101.958 292.88 99.81 290.308 98.466C288.663 97.608 286.901 97.26 284.947 97.098C283.063 96.942 280.747 96.942 277.906 96.942ZM313.571 145.83L304.098 140.226V114.066L313.571 108.462C317.782 105.972 323.05 109.086 323.05 114.066V140.226C323.05 145.206 317.782 148.32 313.571 145.83Z" fill="#080808" fill-opacity="0.96"/>
<path d="M258.691 96.942C255.856 96.942 253.534 96.942 251.65 97.098C249.702 97.26 247.94 97.608 246.295 98.466C243.717 99.81 241.623 101.958 240.31 104.598C239.476 106.284 239.132 108.09 238.974 110.088C238.823 112.02 238.823 114.396 238.823 117.3V136.992C238.823 139.896 238.823 142.272 238.974 144.204C239.132 146.202 239.476 148.008 240.31 149.694C241.623 152.334 243.717 154.476 246.295 155.826C247.94 156.684 249.702 157.032 251.65 157.194C253.534 157.35 255.856 157.35 258.691 157.35H277.906C280.747 157.35 283.063 157.35 284.947 157.194C286.901 157.032 288.663 156.684 290.308 155.826C292.88 154.476 294.974 152.334 296.287 149.694C297.127 148.008 297.465 146.202 297.628 144.204C297.774 142.356 297.78 140.1 297.78 137.364V116.922C297.78 114.192 297.774 111.936 297.628 110.088C297.465 108.09 297.127 106.284 296.287 104.598C294.974 101.958 292.88 99.81 290.308 98.466C288.663 97.608 286.901 97.26 284.947 97.098C283.063 96.942 280.747 96.942 277.906 96.942H258.691ZM313.571 145.83C317.782 148.32 323.05 145.206 323.05 140.226V114.066C323.05 109.086 317.782 105.972 313.571 108.462L304.098 114.066V140.226L313.571 145.83Z" stroke="white" stroke-width="4.28572" stroke-linejoin="round"/>
</g>
<g opacity="0.4">
<path d="M157.41 224.499C182.398 224.499 202.656 203.538 202.656 177.68C202.656 151.823 182.398 130.861 157.41 130.861C132.422 130.861 112.165 151.823 112.165 177.68C112.165 203.538 132.422 224.499 157.41 224.499Z" stroke="white" stroke-width="3.21429"/>
</g>
<path d="M150.614 166.044H17.7269C14.8525 166.044 12.5225 168.441 12.5225 171.397V197.397C12.5225 200.353 14.8525 202.75 17.7269 202.75H150.614C153.489 202.75 155.819 200.353 155.819 197.397V171.397C155.819 168.441 153.489 166.044 150.614 166.044Z" fill="#080808"/>
<path d="M149.677 167.009H18.6644C15.79 167.009 13.46 169.405 13.46 172.362V196.433C13.46 199.389 15.79 201.786 18.6644 201.786H149.677C152.551 201.786 154.881 199.389 154.881 196.433V172.362C154.881 169.405 152.551 167.009 149.677 167.009Z" stroke="white" stroke-width="3.21429"/>
<path d="M133.429 187.018C134.489 187.018 135.348 186.138 135.348 185.052C135.348 183.966 134.489 183.086 133.429 183.086C132.369 183.086 131.51 183.966 131.51 185.052C131.51 186.138 132.369 187.018 133.429 187.018Z" fill="#D9D9D9"/>
<path d="M139.826 187.018C140.886 187.018 141.745 186.138 141.745 185.052C141.745 183.966 140.886 183.086 139.826 183.086C138.766 183.086 137.907 183.966 137.907 185.052C137.907 186.138 138.766 187.018 139.826 187.018Z" fill="#D9D9D9"/>
<path d="M146.223 187.018C147.283 187.018 148.142 186.138 148.142 185.052C148.142 183.966 147.283 183.086 146.223 183.086C145.163 183.086 144.304 183.966 144.304 185.052C144.304 186.138 145.163 187.018 146.223 187.018Z" fill="#D9D9D9"/>
<path d="M150.614 207.227H17.7269C14.8525 207.227 12.5225 209.624 12.5225 212.58V238.58C12.5225 241.536 14.8525 243.933 17.7269 243.933H150.614C153.489 243.933 155.819 241.536 155.819 238.58V212.58C155.819 209.624 153.489 207.227 150.614 207.227Z" fill="#080808"/>
<path d="M149.677 208.192H18.6644C15.79 208.192 13.46 210.588 13.46 213.545V237.616C13.46 240.572 15.79 242.969 18.6644 242.969H149.677C152.551 242.969 154.881 240.572 154.881 237.616V213.545C154.881 210.588 152.551 208.192 149.677 208.192Z" stroke="white" stroke-width="3.21429"/>
<path d="M133.429 228.202C134.489 228.202 135.348 227.322 135.348 226.236C135.348 225.15 134.489 224.269 133.429 224.269C132.369 224.269 131.51 225.15 131.51 226.236C131.51 227.322 132.369 228.202 133.429 228.202Z" fill="#D9D9D9"/>
<path d="M139.826 228.202C140.886 228.202 141.745 227.322 141.745 226.236C141.745 225.15 140.886 224.269 139.826 224.269C138.766 224.269 137.907 225.15 137.907 226.236C137.907 227.322 138.766 228.202 139.826 228.202Z" fill="#D9D9D9"/>
<path d="M146.223 228.202C147.283 228.202 148.142 227.322 148.142 226.236C148.142 225.15 147.283 224.269 146.223 224.269C145.163 224.269 144.304 225.15 144.304 226.236C144.304 227.322 145.163 228.202 146.223 228.202Z" fill="#D9D9D9"/>
<path d="M133.429 269.385C134.489 269.385 135.348 268.504 135.348 267.418C135.348 266.332 134.489 265.452 133.429 265.452C132.369 265.452 131.51 266.332 131.51 267.418C131.51 268.504 132.369 269.385 133.429 269.385Z" fill="#D9D9D9"/>
<path d="M139.826 269.384C140.886 269.384 141.745 268.504 141.745 267.418C141.745 266.332 140.886 265.451 139.826 265.451C138.766 265.451 137.907 266.332 137.907 267.418C137.907 268.504 138.766 269.384 139.826 269.384Z" fill="#D9D9D9"/>
<path d="M146.223 269.384C147.283 269.384 148.142 268.504 148.142 267.418C148.142 266.332 147.283 265.451 146.223 265.451C145.163 265.451 144.304 266.332 144.304 267.418C144.304 268.504 145.163 269.384 146.223 269.384Z" fill="#D9D9D9"/>
<path d="M72.6482 327.3C73.0682 328.488 73.8616 330.18 75.3024 331.668C76.8541 333.27 78.6799 334.116 79.8641 334.536C80.1091 334.62 80.1091 335.16 79.8641 335.244C78.6916 335.658 76.8832 336.492 75.3432 338.076C73.8032 339.654 72.9866 341.496 72.5841 342.702C72.4966 342.948 71.9716 342.948 71.8841 342.702C71.4816 341.496 70.6649 339.654 69.1307 338.076C67.6374 336.546 65.9049 335.718 64.7324 335.292C64.4816 335.202 64.4932 334.614 64.7382 334.53C65.9282 334.128 67.6782 333.324 69.2007 331.782C70.6882 330.282 71.4641 328.53 71.8607 327.312C71.9424 327.054 72.5607 327.048 72.6482 327.3Z" fill="black"/>
<path d="M72.6482 327.3C73.0682 328.488 73.8616 330.18 75.3024 331.668C76.8541 333.27 78.6799 334.116 79.8641 334.536C80.1091 334.62 80.1091 335.16 79.8641 335.244C78.6916 335.658 76.8832 336.492 75.3432 338.076C73.8032 339.654 72.9866 341.496 72.5841 342.702C72.4966 342.948 71.9716 342.948 71.8841 342.702C71.4816 341.496 70.6649 339.654 69.1307 338.076C67.6374 336.546 65.9049 335.718 64.7324 335.292C64.4816 335.202 64.4932 334.614 64.7382 334.53C65.9282 334.128 67.6782 333.324 69.2007 331.782C70.6882 330.282 71.4641 328.53 71.8607 327.312C71.9424 327.054 72.5607 327.048 72.6482 327.3Z" fill="url(#paint2_radial_1_20065)"/>
<path fill-rule="evenodd" clip-rule="evenodd" d="M73.6807 331.746C73.9141 332.034 74.1591 332.31 74.4157 332.574C74.6082 332.772 74.8007 332.964 75.0049 333.144C75.7574 333.822 76.5857 334.404 77.4957 334.89C76.6207 335.358 75.8157 335.916 75.0924 336.558C74.8707 336.756 74.6607 336.954 74.4566 337.17C74.2524 337.374 74.0599 337.59 73.8732 337.812C73.2374 338.556 72.6949 339.378 72.2341 340.278C71.7732 339.378 71.2307 338.556 70.6007 337.812C70.4082 337.59 70.2157 337.374 70.0116 337.17C69.8424 336.99 69.6674 336.822 69.4866 336.66C68.7516 335.994 67.9407 335.418 67.0541 334.932C67.8357 334.524 68.5649 334.038 69.2299 333.48C69.5274 333.234 69.8132 332.976 70.0816 332.7C70.3499 332.424 70.6066 332.142 70.8457 331.848C71.3999 331.164 71.8782 330.42 72.2807 329.61C72.6832 330.378 73.1499 331.092 73.6807 331.746ZM71.5924 328.062C71.5982 328.05 71.5982 328.038 71.6041 328.026C71.7032 327.774 71.7907 327.534 71.8607 327.312C71.9424 327.054 72.5607 327.048 72.6482 327.3C72.7241 327.522 72.8174 327.756 72.9224 328.008C72.9282 328.02 72.9341 328.032 72.9399 328.05C73.4007 329.142 74.1416 330.474 75.3024 331.668C76.5157 332.922 77.8982 333.714 79.0066 334.2C79.0357 334.212 79.0591 334.218 79.0882 334.23C79.3682 334.35 79.6249 334.452 79.8641 334.536C80.1091 334.62 80.1091 335.16 79.8641 335.244C79.6249 335.328 79.3682 335.43 79.0882 335.55C79.0591 335.562 79.0299 335.568 79.0066 335.58C77.9099 336.06 76.5449 336.84 75.3432 338.076C74.1357 339.306 73.3774 340.704 72.9107 341.826C72.8991 341.856 72.8874 341.88 72.8757 341.904C72.7591 342.192 72.6657 342.456 72.5841 342.702C72.4966 342.948 71.9716 342.948 71.8841 342.702C71.8082 342.456 71.7091 342.192 71.5924 341.904C71.5807 341.88 71.5691 341.856 71.5574 341.826C71.0907 340.704 70.3324 339.306 69.1307 338.076C67.9466 336.864 66.6107 336.09 65.5257 335.61C65.5024 335.598 65.4849 335.592 65.4674 335.586C65.2049 335.466 64.9541 335.37 64.7324 335.292C64.4816 335.202 64.4932 334.614 64.7382 334.53C64.9657 334.452 65.2166 334.362 65.4791 334.254C65.4966 334.242 65.5199 334.236 65.5374 334.23C66.6399 333.768 67.9932 333.006 69.2007 331.782C70.4024 330.57 71.1432 329.19 71.5924 328.062Z" fill="white"/>
<defs>
<radialGradient id="paint0_radial_1_20065" cx="0" cy="0" r="1" gradientUnits="userSpaceOnUse" gradientTransform="translate(147.775 21.2032) rotate(97.2208) scale(61.2895 54.7744)">
<stop offset="0.412019" stop-color="white" stop-opacity="0"/>
<stop offset="1" stop-color="white" stop-opacity="0.721569"/>
</radialGradient>
<radialGradient id="paint1_radial_1_20065" cx="0" cy="0" r="1" gradientUnits="userSpaceOnUse" gradientTransform="translate(296.713 239.425) rotate(97.2208) scale(33.0719 29.5565)">
<stop offset="0.412019" stop-color="white" stop-opacity="0"/>
<stop offset="1" stop-color="white" stop-opacity="0.721569"/>
</radialGradient>
<radialGradient id="paint2_radial_1_20065" cx="0" cy="0" r="1" gradientUnits="userSpaceOnUse" gradientTransform="translate(72.3361 329.998) rotate(97.2057) scale(11.8106 10.5341)">
<stop offset="0.412019" stop-color="white" stop-opacity="0"/>
<stop offset="1" stop-color="white" stop-opacity="0.721569"/>
</radialGradient>
</defs>
</svg>
