<svg xmlns="http://www.w3.org/2000/svg" shape-rendering="geometricPrecision" text-rendering="geometricPrecision" image-rendering="optimizeQuality" fill-rule="evenodd" clip-rule="evenodd" viewBox="0 0 512 512"><path fill="#2D2033" fill-rule="nonzero" d="M171.485 341.961c-8.4-5.252-15.55-12.617-21.016-23.078-15.743-30.135-5.418-67.597 28.952-77.874-8.11-4.897-15.003-11.846-20.23-21.851-13.729-26.278-6.28-59.11 22.548-70.793-6.192-4.419-11.508-10.337-15.69-18.34-18.025-34.499 4.509-73.718 45.024-69.819-1.874-9.43-1.468-19.142 2.179-28.577C220.148 13.785 236.255 0 255.955 0c19.131 0 34.776 12.858 42.034 29.998 4.545 10.73 5.036 20.665 2.918 30.211 15.649-1.513 31.148 3.763 41.319 16.116 12.702 15.426 12.735 36.465 3.729 53.7-4.18 8.003-9.497 13.921-15.689 18.34 28.829 11.683 36.277 44.514 22.549 70.793-5.228 10.005-12.121 16.955-20.231 21.851 34.371 10.276 44.696 47.738 28.952 77.874-5.465 10.46-12.615 17.824-21.012 23.076 36.73 11.311 47.422 51.554 30.587 83.783-7.556 14.462-18.092 23.444-30.618 29.177-21.022 9.62-52.35 11.364-75.023 7.373v41.161a8.547 8.547 0 01-17.095 0v-41.497c-23.555 4.457-55.325 2.818-76.862-7.037-12.527-5.733-23.063-14.715-30.618-29.177-16.854-32.265-6.133-72.427 30.59-83.781z"/><path fill="#A582B5" d="M288.3 57.949c1.693-7.262 1.382-14.817-2.08-22.993-5.558-13.125-17.024-22.135-30.265-22.135-13.668 0-25.443 9.599-30.783 23.415-2.719 7.034-2.981 14.416-1.512 21.689 8.224-8.964 19.501-14.779 32.295-14.779 12.85 0 24.126 5.8 32.345 14.803zM272.684 450.467a124.676 124.676 0 0028.323.587c24.923-2.332 46.621-7.94 58.785-31.222 9.234-17.675 8.769-38.069-3.005-52.37-11.32-13.748-30.172-18.319-48.599-13.616 5.551 13.842 5.67 26.623 2.405 38.917-3.116 11.733-9.302 22.605-16.65 33.45a129.84 129.84 0 01-13.709 16.951 135.637 135.637 0 01-7.55 7.303zm-34.012.085a124.619 124.619 0 01-27.673.502c-24.923-2.332-46.622-7.94-58.785-31.222-9.234-17.675-8.77-38.069 3.005-52.37 11.295-13.719 30.089-18.299 48.478-13.647-.104.258-.207.519-.307.779-7.026 18.175-4.312 37.292 3.662 54.696 7.271 15.87 19.083 30.428 31.62 41.262zm17.206-2.806c11.04-8.284 20.168-17.876 27.498-28.695 13.247-19.551 22.174-38.718 12.511-61.54-7.337-17.323-22.469-29.215-39.946-29.215-18.041 0-33.583 12.67-40.632 30.906-12.568 32.514 14.602 70.663 40.569 88.544z"/><path fill="#9B74AD" d="M301.303 340.852c20.743-2.398 38.603-8.143 48.914-27.879 8.382-16.044 7.961-34.557-2.727-47.538-10.039-12.193-26.605-16.434-42.96-12.642 5.084 12.768 5.181 24.562 2.169 35.909-2.87 10.803-8.544 20.782-15.281 30.725a117.366 117.366 0 01-4.6 6.324l.116.085c5.5 4.021 10.362 9.113 14.369 15.016zm-90.71-.013c-20.696-2.405-38.512-8.164-48.805-27.866-8.382-16.044-7.96-34.557 2.728-47.538 10.016-12.166 26.529-16.416 42.848-12.669l-.22.562c-6.506 16.832-4.009 34.501 3.352 50.566 3.625 7.912 8.479 15.468 14 22.313l-.37.278c-5.164 3.928-9.736 8.786-13.533 14.354zm64.97-21.431a106.784 106.784 0 005.288-7.143c12.024-17.748 20.128-35.147 11.356-55.863-6.659-15.726-20.396-26.52-36.261-26.52-16.376 0-30.485 11.5-36.883 28.054-8.037 20.791 1.827 44.119 16.599 61.768 6.317-2.736 13.148-4.229 20.279-4.229 6.889 0 13.493 1.386 19.622 3.933z"/><path fill="#A582B5" d="M215.246 238.586c-18.972-2.152-35.322-7.318-44.736-25.339-7.606-14.558-7.223-31.357 2.475-43.137 7.034-8.544 17.599-12.784 28.882-12.688a95.533 95.533 0 008.509 1.771c-5.794 15.457-3.474 31.618 3.257 46.308 3.462 7.557 8.144 14.761 13.467 21.243-.249.182-.498.368-.745.556-4.154 3.159-7.894 6.965-11.109 11.286zm81.419.011c19.012-2.145 35.4-7.3 44.831-25.35 7.606-14.558 7.223-31.357-2.476-43.137-7.034-8.543-17.598-12.784-28.88-12.689a95.456 95.456 0 01-8.613 1.789c4.329 11.461 4.341 22.083 1.624 32.314-2.645 9.955-7.853 19.121-14.033 28.242a107.514 107.514 0 01-4.83 6.576l.491.355c4.461 3.262 8.467 7.282 11.886 11.9zm-23.811-18.415a96.248 96.248 0 005.696-7.577c10.912-16.105 18.266-31.894 10.305-50.692-6.042-14.269-18.508-24.064-32.903-24.064-14.861 0-27.664 10.435-33.47 25.457-7.456 19.289 2.067 40.986 15.971 57.118a47.196 47.196 0 0117.493-3.364 47.31 47.31 0 0116.908 3.122z"/><path fill="#9B74AD" d="M295.364 147.197c16.649-2.111 30.925-7.103 39.273-23.082 6.996-13.39 6.644-28.841-2.277-39.676-8.041-9.767-21.101-13.422-34.207-10.901 4.741 11.422 4.894 21.945 2.208 32.061-2.68 10.089-8.47 20.539-15.638 29.874 4.038 3.27 7.627 7.228 10.641 11.724zm-78.812-.012c-16.611-2.119-30.85-7.12-39.184-23.07-6.995-13.39-6.643-28.841 2.277-39.676 8.023-9.744 21.039-13.403 34.112-10.919a56.64 56.64 0 00-.505 1.255c-8.056 20.838-.213 43.475 13.392 61.178-3.82 3.182-7.221 6.969-10.092 11.232zm57.26-18.387a89.005 89.005 0 002.93-4.072c10.036-14.812 16.799-29.334 9.478-46.624-5.558-13.125-17.024-22.135-30.265-22.135-13.668 0-25.443 9.599-30.783 23.415-6.429 16.632.867 35.21 12.34 49.694 5.714-2.615 11.931-4.049 18.44-4.049 6.293 0 12.31 1.332 17.86 3.771z"/></svg>